# xmcd CD database file
#
# Track frame offsets:
#	182
#	12480
#	24460
#	36827
#	50085
#	62447
#	73382
#	86800
#	98577
#	112407
#	123355
#	135972
#
# Disc length: 1976 seconds
#
# Revision: 5
# Processed by: cddbd v1.5.2PL0 Copyright (c) Steve Scherf et al.
# Submitted via: CDex 1.50
#
DISCID=a807b60c
DTITLE=Hank Williams - The Hits Volume 2
DYEAR=1900
DGENRE=Country
TTITLE0=Your Cheatin' Heart
TTITLE1=Take These Chains From My Heart
TTITLE2=Half as Much
TTITLE3=Mind Your Own Business
TTITLE4=Howlin' at the Moon
TTITLE5=Moanin' the Blues
TTITLE6=You're Gonna Change (Or I'm Gonna Leave)
TTITLE7=Kaw-liga
TTITLE8=Ramblin' Man
TTITLE9=I Can't Help it (If I'm Still in Love With You)
TTITLE10=I'm So Lonesome I Could Cry
TTITLE11=Cold, Cold Heart
EXTD=
EXTT0=
EXTT1=
EXTT2=
EXTT3=
EXTT4=
EXTT5=
EXTT6=
EXTT7=
EXTT8=
EXTT9=
EXTT10=
EXTT11=
PLAYORDER=
